<svg 
    xmlns="http://www.w3.org/2000/svg" 
    xmlns:xlink="http://www.w3.org/1999/xlink" fill="white" version="1.1" x="0px" y="0px" viewBox="0 0 52 52" enable-background="new 0 0 52 52" xml:space="preserve">
    <g>
        <path d="M44.5055504,14.1000977c0,0.1899414-0.0200195,0.3901367-0.0599976,0.5900879   c-0.1600342,0.7897949-0.6199951,1.4699707-1.2900391,1.9199219l-8.5499878,5.6501465l-2.7799683-0.7700195l-1.2700195,7.5498047   l7.5800171,10.420166l-3.8900146,8.7600098c-0.3300171,0.7299805-0.9199829,1.2900391-1.6699829,1.579834   C32.2255211,49.9301758,31.8655357,50,31.5055504,50c-0.4199829,0-0.8300171-0.0898438-1.2200317-0.2597656   c-0.7299805-0.3200684-1.289978-0.920166-1.5799561-1.6601563c-0.2900391-0.75-0.2700195-1.5698242,0.0599976-2.2998047   l2.4799805-5.5900879L26.145565,33.170166L23.5855675,40H11.5055504c-1.6600342,0-3-1.3498535-3-3c0-1.6499023,1.3399658-3,3-3   h7.8999634l1.1200562-3.2299805l1.5299683-11.9699707l-5.5499878-1.5300293l-4.2399902,3.0102539   c-1.3500366,0.9599609-3.2399902,0.6499023-4.210022-0.7001953c-0.4699702-0.6499023-0.6500239-1.4399414-0.5200191-2.2299805   c0.1300049-0.8000488,0.5700068-1.4899902,1.230041-1.9599609l6.5899658-4.6601563l18.210022,5.0102539l6.25-4.130127   c1.3800049-0.9099121,3.2600098-0.5400391,4.1799927,0.8300781C44.3355064,12.9401855,44.5055504,13.5102539,44.5055504,14.1000977   z"/>
        <path d="M22.5055504,7c0-2.7597656,2.2399902-5,5-5c2.75,0,5,2.2402344,5,5c0,2.7602539-2.25,5-5,5   C24.7455406,12,22.5055504,9.7602539,22.5055504,7z"/>
    </g>
    <!-- <text x="0" y="67" fill="#000000" font-size="5px" font-weight="bold" font-family="'Helvetica Neue', Helvetica, Arial-Unicode, Arial, Sans-serif">Created by Dinosoft Labs</text> -->
    <!-- <text x="0" y="72" fill="#000000" font-size="5px" font-weight="bold" font-family="'Helvetica Neue', Helvetica, Arial-Unicode, Arial, Sans-serif">from the Noun Project</text> -->
</svg>